<?xml version="1.0" encoding="UTF-8"?>
<svg width="26px" height="26px" viewBox="0 0 26 26" version="1.1" xmlns="http://www.w3.org/2000/svg" xmlns:xlink="http://www.w3.org/1999/xlink">
    <!-- Generator: sketchtool 51.3 (57544) - http://www.bohemiancoding.com/sketch -->
    <title>1B4B76E7-FD35-4398-BD74-64E8D5625408</title>
    <desc>Created with sketchtool.</desc>
    <defs></defs>
    <g id="Symbols" stroke="none" stroke-width="1" fill="none" fill-rule="evenodd">
        <g id="Arquivar-G-ativ" fill-rule="nonzero">
            <g id="Group-20">
                <path d="M23.1263096,3.23694779 L21.5746045,1.56626506 L4.46577095,1.56626506 L2.91406584,3.23694779 L23.1263096,3.23694779 Z M25.4732665,3.4672768 C25.792,3.69429025 26,4.06773699 26,4.48995984 L26,24.746988 C26,25.4390074 25.4412514,26 24.752,26 L1.248,26 C0.558748632,26 0,25.4390074 0,24.746988 L0,4.48995984 C0,4.02496618 0.252274841,3.6191311 0.626903505,3.40289739 L3.744,0.0467962356 L3.744,0 L22.256,0 L22.256,0.00332501643 L25.4732665,3.4672768 Z" id="Combined-Shape" fill="#7C7C7C"></path>
                <path d="M16.224,12.9477912 L21.008,12.9477912 L13,20.8835341 L4.992,12.9477912 L9.672,12.9477912 L9.672,9.71084337 L16.224,9.71084337 L16.224,12.9477912 Z" id="Combined-Shape" fill="#FFFFFF"></path>
                <polygon id="Rectangle-13" fill="#BBBBBB" points="4.368 1.56626506 21.6671406 1.56626506 23.4 3.23694779 2.74990625 3.23694779"></polygon>
            </g>
        </g>
    </g>
</svg>