<?xml version="1.0" encoding="utf-8"?>
<!-- Generator: Adobe Illustrator 21.0.2, SVG Export Plug-In . SVG Version: 6.00 Build 0)  -->
<svg version="1.1" id="Layer_1" xmlns="http://www.w3.org/2000/svg" xmlns:xlink="http://www.w3.org/1999/xlink" x="0px" y="0px"
	 width="13px" height="8px" viewBox="0 0 13 8" enable-background="new 0 0 13 8" xml:space="preserve">
<path fill="none" enable-background="new    " d="M0,0"/>
<path id="seta-esq-paginacao" fill="#555555" d="M11.3,7.7L6.5,2.5L1.7,7.7c-0.4,0.4-1,0.4-1.3,0.1c0,0,0,0-0.1-0.1
	c-0.4-0.4-0.4-1.1,0-1.5l5.5-5.9c0.3-0.4,0.9-0.4,1.3-0.1c0,0,0,0,0.1,0.1l5.5,5.9c0.4,0.4,0.4,1.1,0,1.5
	C12.4,8.1,11.8,8.1,11.3,7.7C11.4,7.8,11.4,7.7,11.3,7.7z"/>
</svg>
