<?xml version="1.0" encoding="utf-8"?>
<!-- Generator: Adobe Illustrator 21.0.2, SVG Export Plug-In . SVG Version: 6.00 Build 0)  -->
<svg version="1.1" id="Layer_1" xmlns="http://www.w3.org/2000/svg" xmlns:xlink="http://www.w3.org/1999/xlink" x="0px" y="0px"
	 width="13px" height="8px" viewBox="0 0 13 8" enable-background="new 0 0 13 8" xml:space="preserve">
<path id="seta-esq-paginacao" fill="#555555" d="M1.7,0.3l4.8,5.2l4.8-5.2c0.3-0.4,0.9-0.4,1.3-0.1c0,0,0,0,0.1,0.1
	c0.4,0.4,0.4,1.1,0,1.5L7.2,7.7C6.8,8.1,6.3,8.1,5.9,7.8c0,0,0,0-0.1-0.1L0.3,1.8c-0.4-0.4-0.4-1.1,0-1.5C0.6-0.1,1.2-0.1,1.7,0.3
	C1.6,0.3,1.7,0.3,1.7,0.3z"/>
</svg>
