<?xml version="1.0" encoding="UTF-8"?>
<svg width="37px" height="39px" viewBox="0 0 37 39" version="1.1" xmlns="http://www.w3.org/2000/svg" xmlns:xlink="http://www.w3.org/1999/xlink">
    <!-- Generator: sketchtool 51.3 (57544) - http://www.bohemiancoding.com/sketch -->
    <title>7322D97A-BC22-4570-A17E-63352B496223</title>
    <desc>Created with sketchtool.</desc>
    <defs></defs>
    <g id="Symbols" stroke="none" stroke-width="1" fill="none" fill-rule="evenodd">
        <g id="icon-notifications" transform="translate(-2.000000, 0.000000)">
            <g id="Group-2" transform="translate(2.000000, 1.000000)">
                <g id="Group-7" transform="translate(0.000000, 11.000000)" fill="#FFFFFF" fill-rule="nonzero">
                    <g id="notification">
                        <path d="M23.9143278,22.1780818 L21.8527965,19.0707731 C20.9024368,17.636564 20.3996394,15.994967 20.3996394,14.3218673 L20.3996394,11.5999695 C20.3996394,7.41022248 16.6305993,4 12.0000146,4 C7.36942982,4 3.60038975,7.41022248 3.60038975,11.5999695 L3.60038975,14.3218673 C3.60038975,15.994967 3.09759234,17.636564 2.14723266,19.0707731 L0.0857013897,22.1780818 C-0.025893875,22.3452646 -0.0283125224,22.554841 0.0773204954,22.7242121 C0.184134713,22.894652 0.384488711,23 0.600479546,23 L23.3994934,23 C23.6154842,23 23.8158945,22.8947029 23.9226524,22.7242121 C24.0282854,22.5547901 24.025923,22.3452646 23.9143278,22.1780818 Z M1.66007208,21.9142537 L3.17560778,19.6288123 C4.23874391,18.0263008 4.80032009,16.1914639 4.80032009,14.3218673 L4.80032009,11.5999695 C4.80032009,8.00734731 8.02938307,5.08569538 12.0000146,5.08569538 C15.9706461,5.08569538 19.1997091,8.00734731 19.1997091,11.5999695 L19.1997091,14.3218673 C19.1997091,16.1914639 19.7612853,18.0263008 20.8232402,19.6288123 L22.3399571,21.9142537 L1.66007208,21.9142537 Z" id="Shape"></path>
                        <path d="M12,0 C10.896993,0 10,0.996666667 10,2.22223958 L10,4.44447917 C10,4.75109375 10.2240139,5 10.5000117,5 C10.7760096,5 11.0000234,4.75109375 11.0000234,4.44442708 L11.0000234,2.22223958 C11.0000234,1.60890625 11.4480043,1.11114583 12,1.11114583 C12.5519957,1.11114583 12.9999766,1.60890625 12.9999766,2.22223958 L12.9999766,4.44447917 C12.9999766,4.75109375 13.2239904,5 13.4999883,5 C13.7759861,5 14,4.75109375 14,4.44442708 L14,2.22223958 C14,0.996666667 13.103007,0 12,0 Z" id="Shape"></path>
                        <path d="M14.594546,23.2464332 C14.4254147,23.0084129 14.0595446,22.9304011 13.7728985,23.0673906 C13.4861962,23.2074273 13.3902727,23.5144581 13.558167,23.7524784 C13.7140849,23.9735274 13.799269,24.2385518 13.799269,24.4995912 C13.799269,25.3267317 12.9920157,25.9998177 12,25.9998177 C11.0079843,25.9998177 10.200731,25.3267317 10.200731,24.4995912 C10.200731,24.2385518 10.2859151,23.9735274 10.441833,23.7524784 C10.6085465,23.5134267 10.512623,23.2073805 10.2271015,23.0673906 C9.93803767,22.9303542 9.57334833,23.008366 9.40545403,23.2464332 C9.14034299,23.6244903 9,24.0575401 9,24.4996381 C9.00005623,25.8788151 10.3446725,27 11.9988192,27 C13.652966,27 14.9975822,25.8788151 15,24.4996381 C15,24.0575401 14.859657,23.6244903 14.594546,23.2464332 Z" id="Shape"></path>
                    </g>
                </g>
            </g>
        </g>
    </g>
</svg>