<?xml version="1.0" encoding="utf-8"?>
<!-- Generator: Adobe Illustrator 21.0.2, SVG Export Plug-In . SVG Version: 6.00 Build 0)  -->
<svg version="1.1" id="Layer_1" xmlns="http://www.w3.org/2000/svg" xmlns:xlink="http://www.w3.org/1999/xlink" x="0px" y="0px"
	 width="7.7px" height="13.3px" viewBox="0 0 7.7 13.3" enable-background="new 0 0 7.7 13.3" xml:space="preserve">
<path id="seta-dir-paginacao" fill="#555555" d="M7.4,7.4L1.7,13c-0.4,0.4-1,0.4-1.4,0c0,0,0,0,0,0c-0.4-0.4-0.4-1,0-1.4
	c0,0,0,0,0,0l5-4.9l-5-4.9c-0.4-0.4-0.4-1,0-1.4c0,0,0,0,0,0c0.4-0.4,1-0.4,1.4,0c0,0,0,0,0,0L7.4,6C7.8,6.3,7.8,7,7.4,7.4z"/>
</svg>
