<?xml version="1.0" encoding="utf-8"?>
<!-- Generator: Adobe Illustrator 21.0.2, SVG Export Plug-In . SVG Version: 6.00 Build 0)  -->
<svg version="1.1" id="Layer_1" xmlns="http://www.w3.org/2000/svg" xmlns:xlink="http://www.w3.org/1999/xlink" x="0px" y="0px"
	 width="8px" height="13px" viewBox="0 0 8 13" enable-background="new 0 0 8 13" xml:space="preserve">
<path id="seta-esq-paginacao" fill="#555555" d="M7.7,1.7L2.5,6.5l5.2,4.8c0.4,0.3,0.4,0.9,0.1,1.3c0,0,0,0-0.1,0.1
	c-0.4,0.4-1.1,0.4-1.5,0L0.3,7.2c-0.4-0.3-0.4-0.9-0.1-1.3c0,0,0,0,0.1-0.1l5.9-5.5c0.4-0.4,1.1-0.4,1.5,0C8.1,0.6,8.1,1.2,7.7,1.7
	C7.7,1.6,7.7,1.6,7.7,1.7z"/>
</svg>
